<svg width="68" height="84" viewBox="0 0 68 84" fill="none" xmlns="http://www.w3.org/2000/svg">
<path d="M27.2958 2.5242C28.938 1.2558 31.164 0 33.6 0C36.036 0 38.262 1.2558 39.9042 2.5242C41.685 3.8976 43.4154 5.7708 44.9316 7.9632C45.7044 9.0804 46.4268 10.2984 47.0988 11.6172C50.9342 9.63432 55.1544 8.50797 59.4678 8.316C64.2054 8.0934 67.2 12.0792 67.2 15.9516V25.2C67.2008 33.3844 64.2142 41.2877 58.801 47.4263C53.3878 53.5648 45.9202 57.5165 37.8 58.5396V71.4336C42.3192 68.6238 48.9804 65.3268 57.7836 63.126C58.3222 62.9815 58.8841 62.9457 59.4367 63.0207C59.9892 63.0956 60.5213 63.2799 61.0019 63.5627C61.4825 63.8455 61.9019 64.2211 62.2358 64.6677C62.5697 65.1143 62.8113 65.6229 62.9465 66.1639C63.0818 66.7048 63.1079 67.2673 63.0235 67.8185C62.9391 68.3697 62.7457 68.8985 62.4548 69.3742C62.1638 69.8499 61.781 70.2628 61.3287 70.589C60.8765 70.9152 60.3638 71.148 59.8206 71.274C46.305 74.655 38.6694 80.892 36.9306 82.4376C35.952 83.3112 34.9818 84 33.6 84C32.235 84 31.2648 83.328 30.2946 82.4586C28.6104 80.955 20.9706 74.6718 7.3794 71.274C6.84099 71.1432 6.33377 70.9072 5.88698 70.5795C5.44019 70.2518 5.06265 69.8389 4.77612 69.3647C4.48959 68.8905 4.29972 68.3642 4.21745 67.8163C4.13519 67.2683 4.16216 66.7095 4.2968 66.1721C4.43145 65.6346 4.67111 65.1291 5.00197 64.6847C5.33284 64.2402 5.74838 63.8656 6.22465 63.5825C6.70092 63.2994 7.2285 63.1133 7.77701 63.0349C8.32552 62.9566 8.88411 62.9875 9.4206 63.126C18.2196 65.3268 24.8766 68.628 29.4 71.4336V58.5396C21.2798 57.5165 13.8122 53.5648 8.39896 47.4263C2.98577 41.2877 -0.000763114 33.3844 1.46262e-07 25.2V15.8928C1.46262e-07 12.075 2.9064 8.1228 7.5894 8.2488C10.6722 8.3328 15.3762 8.9544 20.1894 11.4534C20.8278 10.2018 21.5334 9.03 22.2684 7.9674C23.7804 5.7708 25.515 3.8934 27.2958 2.5242Z" fill="#D38686"/>
</svg>
