<svg width="35" height="22" viewBox="0 0 35 22" fill="none" xmlns="http://www.w3.org/2000/svg">
<path d="M23.8636 9.42857C26.5045 9.42857 28.6205 7.32286 28.6205 4.71429C28.6205 2.10571 26.5045 0 23.8636 0C21.2227 0 19.0909 2.10571 19.0909 4.71429C19.0909 7.32286 21.2227 9.42857 23.8636 9.42857ZM11.1364 9.42857C13.7773 9.42857 15.8932 7.32286 15.8932 4.71429C15.8932 2.10571 13.7773 0 11.1364 0C8.49545 0 6.36364 2.10571 6.36364 4.71429C6.36364 7.32286 8.49545 9.42857 11.1364 9.42857ZM11.1364 12.5714C7.42955 12.5714 0 14.41 0 18.0714V22H22.2727V18.0714C22.2727 14.41 14.8432 12.5714 11.1364 12.5714ZM23.8636 12.5714C23.4023 12.5714 22.8773 12.6029 22.3205 12.65C24.1659 13.97 25.4545 15.7457 25.4545 18.0714V22H35V18.0714C35 14.41 27.5705 12.5714 23.8636 12.5714Z" fill="#0A183B"/>
</svg>
